<?xml version="1.0" encoding="UTF-8"?>
<svg xmlns="http://www.w3.org/2000/svg" version="1.1" viewBox="0 0 138.6 18">
  <path fill="#fff" d="M4.9,15.3c-.9-.6-1.7-1.4-2.1-2.5s-.7-2.4-.7-3.9.2-2.7.7-3.8,1.2-1.9,2.1-2.4c.9-.6,2-.8,3.2-.8s1.4,0,2,.2c.6.1,1.2.3,2,.5l-.3,1.2c-.3,0-.7-.2-1-.3-.5-.1-.9-.2-1.3-.3-.4,0-.8-.1-1.3-.1-1,0-1.8.2-2.5.7-.7.5-1.3,1.1-1.6,2-.4.9-.6,1.9-.6,3.1s.2,2.3.6,3.2c.4.9.9,1.6,1.7,2,.7.5,1.7.7,2.8.7s1.1,0,1.8-.2c.6-.1,1.2-.3,1.7-.5l.3,1.2c-.7.3-1.4.4-2,.6s-1.2.2-1.8.2c-1.4,0-2.5-.3-3.5-.9Z"/>
  <path fill="#fff" d="M14.8,4.1v-.5h0v-1.4h1.4v13.6h-1.4V4.1ZM15.7,9.6l3.6-.2c1,0,1.8-.4,2.4-.9.6-.6.9-1.3.9-2.1s-.3-1.6-.9-2.2c-.6-.5-1.4-.8-2.4-.8h-3.5l.4-1.2h3.1c1.4,0,2.6.4,3.4,1.1.8.8,1.2,1.8,1.2,3.1s-.2,1.5-.6,2.1c-.4.6-.9,1.1-1.6,1.5-.7.4-1.5.6-2.5.6l-3.6.2v-1.2ZM21.2,12.7c-.6-1-1.1-1.8-1.5-2.4l1.2-.3c.5.7,1,1.5,1.7,2.6.6,1,1.2,2.1,1.8,3.2h-1.5c-.6-1.1-1.1-2.2-1.7-3.1Z"/>
  <path fill="#fff" d="M27.5,6.8c-.7-1.6-1.3-3.1-1.7-4.6h1.4c.4,1.3.9,2.7,1.5,4.2.6,1.4,1.3,2.8,2.1,4.1v.9s-.9,0-.9,0c-.8-1.5-1.6-3-2.3-4.6ZM30,10.2h2.6v1.2h-2.6v-1.2ZM30.8,11.3h1.2v4.6c.1,0-1.3,0-1.3,0v-4.6ZM33.9,6.3c.6-1.4,1.2-2.8,1.6-4.2h1.4c-.5,1.4-1.1,2.9-1.8,4.5s-1.5,3.2-2.3,4.7h-1v-.9c.7-1.3,1.4-2.7,2-4.1Z"/>
  <path fill="#fff" d="M39.7,4.1v-.5h0v-1.4h1.4v13.6h-1.4V4.1ZM40.7,9.9l3.4-.2c1.1,0,2-.3,2.5-.9.6-.5.9-1.3.9-2.2s-.3-1.8-.9-2.4c-.6-.5-1.4-.8-2.5-.8h-3.3l.3-1.2h3c1.5,0,2.7.4,3.5,1.2.8.8,1.2,1.9,1.2,3.3s-.4,2.4-1.2,3.1c-.8.7-2,1.1-3.5,1.2l-3.5.2v-1.2Z"/>
  <path fill="#fff" d="M54.5,3.4h-4.4v-1.2h10.2v1.2h-4.4v12.4h-1.4V3.4Z"/>
  <path fill="#fff" d="M64.5,15.2c-.9-.6-1.6-1.4-2.1-2.5-.5-1.1-.7-2.3-.7-3.8s.2-2.7.7-3.8c.5-1.1,1.2-1.9,2.1-2.5.9-.6,2-.9,3.2-.9s2.3.3,3.2.9c.9.6,1.6,1.4,2.1,2.5.5,1.1.7,2.3.7,3.8s-.2,2.7-.7,3.8c-.5,1.1-1.2,1.9-2.1,2.5s-2,.9-3.2.9-2.3-.3-3.2-.9ZM70.1,14.1c.7-.5,1.3-1.2,1.6-2,.4-.9.6-1.9.6-3.1s-.2-2.2-.6-3.1c-.4-.9-.9-1.6-1.6-2-.7-.5-1.5-.7-2.5-.7s-1.8.2-2.5.7c-.7.5-1.2,1.2-1.6,2s-.6,1.9-.6,3.1.2,2.2.6,3.1c.4.9.9,1.6,1.6,2s1.5.7,2.5.7,1.8-.2,2.5-.7Z"/>
  <path fill="#fff" d="M78.8,15.3c-1-.6-1.8-1.4-2.3-2.5-.5-1.1-.8-2.4-.8-3.9s.3-2.7.8-3.8,1.3-1.9,2.4-2.4c1-.6,2.2-.8,3.6-.8s1.2,0,1.8.2,1.2.3,1.9.5l-.5,2.4c-.4,0-.8-.2-1.3-.3-.3,0-.6,0-.9-.1-.3,0-.5,0-.8,0-.8,0-1.5.2-2.1.5-.6.3-1.1.8-1.4,1.5s-.5,1.4-.5,2.3.2,1.7.5,2.4c.3.7.8,1.2,1.4,1.6s1.4.5,2.3.5.9,0,1.4-.1c.5,0,1-.2,1.5-.3l.5,2.5c-.7.2-1.3.4-1.9.5-.6.1-1.2.2-1.9.2-1.4,0-2.5-.3-3.5-.9Z"/>
  <path fill="#fff" d="M88.2,2.2h2.9v13.6h-2.9V2.2ZM89.1,7.7h9.3v2.5h-9.3v-2.5ZM96.6,2.2h2.9v13.6h-2.9V2.2Z"/>
  <path fill="#fff" d="M102.7,5.3v-3.1h2.9v13.6h-2.9V5.3ZM102.8,2.2h2.2v2.2l-2.2.5v-2.7ZM105,13.4l6.7-.2-.2,2.6h-7.9l1.4-2.4ZM105,4.6l.3-2.4h6l.2,2.6-6.4-.2ZM105.2,9.9v-2.2l5.1-.2v2.5h-5.1Z"/>
  <path fill="#fff" d="M116.4,15.3c-1-.6-1.8-1.4-2.3-2.5-.5-1.1-.8-2.4-.8-3.9s.3-2.7.8-3.8,1.3-1.9,2.4-2.4c1-.6,2.2-.8,3.6-.8s1.2,0,1.8.2,1.2.3,1.9.5l-.5,2.4c-.4,0-.8-.2-1.3-.3-.3,0-.6,0-.9-.1-.3,0-.5,0-.8,0-.8,0-1.5.2-2.1.5-.6.3-1.1.8-1.4,1.5s-.5,1.4-.5,2.3.2,1.7.5,2.4c.3.7.8,1.2,1.4,1.6s1.4.5,2.3.5.9,0,1.4-.1c.5,0,1-.2,1.5-.3l.5,2.5c-.7.2-1.3.4-1.9.5-.6.1-1.2.2-1.9.2-1.4,0-2.5-.3-3.5-.9Z"/>
  <path fill="#fff" d="M125.7,6.1v-3.9c.6,0,1.1,0,1.5,0s.8,0,1.4,0v13.6h-2.9V6.1ZM130.3,6.9c.6-.7,1.1-1.5,1.6-2.3s.8-1.6,1-2.5h3c-.4,1.4-1,2.7-1.7,3.9-.7,1.2-1.6,2.2-2.5,3.2s-2,1.8-3.2,2.6v-3c.7-.6,1.3-1.3,1.9-2ZM131.9,12.6c-.6-1.2-1.2-2.2-1.6-2.9l2.1-1.4c.8,1.2,1.6,2.5,2.3,3.9.8,1.4,1.4,2.6,1.9,3.8h-3.2c-.4-.9-.9-2-1.6-3.2Z"/>
</svg>
